# xmcd
#
# Track frame offsets: 
#        150
#        19618
#        33301
#        55162
#        75374
#        98277
#        111883
#        133091
#        153193
#        171613
#        190924
#        210586
#        236068
#        259531
#        283400
#        303793
#        324292
#
# Disc length: 4591 seconds
#
# Revision: 2
# Processed by: cddbd v1.5.2PL0 Copyright (c) Steve Scherf et al.
# Submitted via: ExactAudioCopyFreeDBPlugin 1.0
#
DISCID=d911ed11
DTITLE=Васко Кръпката - The Best
DYEAR=2010
DGENRE=Blues
TTITLE0=Роден В Подуене
TTITLE1=Комунизмът Си Отива
TTITLE2=Карай Да Върви, Това Е Блус (live)
TTITLE3=Няма Бира (live)
TTITLE4=Кучето На Крайния Квартал
TTITLE5=Да Живее Рокендрола
TTITLE6=Нека Бъде Светлина (live)
TTITLE7=Въртят Се Колелата
TTITLE8=Пиленцата
TTITLE9=Ден След Ден
TTITLE10=Нощни Пеперуди
TTITLE11=Една Китара
TTITLE12=Живот На Път
TTITLE13=Злите Сили
TTITLE14=Голем Купон
TTITLE15=Там Където Блусът Се Е Родил
TTITLE16=100 Години Рокендрол
EXTD=
EXTT0=
EXTT1=
EXTT2=
EXTT3=
EXTT4=
EXTT5=
EXTT6=
EXTT7=
EXTT8=
EXTT9=
EXTT10=
EXTT11=
EXTT12=
EXTT13=
EXTT14=
EXTT15=
EXTT16=
PLAYORDER=
